<svg xmlns="http://www.w3.org/2000/svg" viewBox="0 0 619.2 173.8">
  <circle fill="#515554" cx="88.124" cy="86.9" r="75" />
  <path opacity=".59" fill="#FFF" d="M88.124 11.9c41.421 0 75 33.579 75 75s-33.579 75-75 75-75-33.579-75-75 33.578-75 75-75m0-4c-43.561 0-79 35.439-79 79s35.439 79 79 79 79-35.439 79-79-35.44-79-79-79z" />
  <path fill="#363A39" d="M161.091 104.218L88.124 31.251l-53.302 92.322 36.388 36.388a75.166 75.166 0 0016.914 1.939c35.457 0 65.147-24.614 72.967-57.682z" />
  <g>
    <path fill="#F47D48" d="M128.724 123.573h12.702L88.124 31.251l-6.351 11z" />
    <path fill="#67BAAF" d="M88.124 53.251l-6.351-11-46.952 81.322 19.053-11z" />
    <path fill="#F19F53" d="M122.373 112.573H53.874l-19.053 11h93.903z" />
  </g>
  <g>
    <g fill="#FFF">
      <path d="M219.318 120.771c-9.653 1.03-18.523 1.547-26.608 1.547-4.043 0-7.014-.949-8.911-2.847-1.898-1.897-2.847-4.867-2.847-8.911V90.758c0-4.331.979-7.477 2.939-9.437 1.959-1.959 5.105-2.939 9.437-2.939h22.277v8.664h-19.802c-2.475 0-3.712 1.237-3.712 3.712v19.802c0 .95.278 1.702.835 2.259.557.557 1.309.836 2.258.836 4.744 0 9.075-.103 12.995-.31v-8.973h-8.044v-7.426h19.183v23.825zM233.241 121.698h-12.066l16.398-43.316h12.375l16.398 43.316H254.28l-2.785-7.735h-15.469l-2.785 7.735zm5.569-15.779h9.902l-4.951-14.542-4.951 14.542zM306.568 97.565l-8.663 15.47h-8.663l-8.663-15.47v24.133H269.44V78.382h11.757l12.376 22.896 12.376-22.896h11.758v43.316h-11.139V97.565zM359.476 121.698h-34.344V78.382h34.344v8.664h-23.205V95.4h18.254v8.663h-18.254v8.973h23.205v8.662zM397.841 121.079c-9.2.825-16.831 1.238-22.896 1.238-4.044 0-7.014-.949-8.911-2.847s-2.846-4.867-2.846-8.911V90.758c0-4.331.979-7.477 2.938-9.437 1.959-1.959 5.105-2.939 9.438-2.939h22.276v8.664h-19.802c-2.475 0-3.713 1.237-3.713 3.712v19.802c0 .95.278 1.702.836 2.259.557.557 1.269.836 2.135.836s1.814-.01 2.847-.031c1.03-.021 2.104-.052 3.218-.093l3.372-.124c1.134-.041 2.599-.124 4.394-.247a916.48 916.48 0 016.714-.434v8.353zM437.135 121.698h-34.344V78.382h34.344v8.664H413.93V95.4h18.254v8.663H413.93v8.973h23.205v8.662zM479.832 121.698h-11.758l-14.851-25.989v25.989h-11.139V78.382h11.757l14.852 25.99v-25.99h11.139v43.316zM508.296 121.698h-11.139V87.046h-12.994v-8.664h37.128v8.664h-12.995v34.652zM559.966 121.698h-34.344V78.382h34.344v8.664h-23.205V95.4h18.254v8.663h-18.254v8.973h23.205v8.662zM564.916 78.382h25.989c4.332 0 7.478.98 9.437 2.939 1.959 1.96 2.939 5.105 2.939 9.437v5.569c0 3.425-.567 6.086-1.701 7.982-1.136 1.898-2.939 3.156-5.415 3.775l7.735 13.613h-12.066l-7.116-12.995h-8.663v12.995h-11.139V78.382zm27.228 12.376c0-2.475-1.238-3.712-3.713-3.712h-12.376v12.994h12.376c2.475 0 3.713-1.237 3.713-3.713v-5.569z" />
    </g>
  </g>
</svg>