<svg xmlns="http://www.w3.org/2000/svg" viewBox="0 0 20 20"><path fill-rule="evenodd" clip-rule="evenodd" fill="#4285F4" d="M18.64 10.205c0-.638-.057-1.252-.164-1.841H10v3.481h4.844a4.141 4.141 0 01-1.796 2.716v2.259h2.909c1.701-1.567 2.683-3.875 2.683-6.615z"/><path fill-rule="evenodd" clip-rule="evenodd" fill="#34A853" d="M10 19c2.43 0 4.467-.806 5.956-2.18l-2.909-2.258c-.805.539-1.836.858-3.047.858-2.344 0-4.328-1.583-5.036-3.71H1.957v2.332A8.998 8.998 0 0010 19z"/><path fill-rule="evenodd" clip-rule="evenodd" fill="#FBBC05" d="M4.964 11.71c-.18-.54-.282-1.117-.282-1.71s.102-1.17.282-1.71V5.958H1.957a9.005 9.005 0 000 8.084l3.007-2.332z"/><path fill-rule="evenodd" clip-rule="evenodd" fill="#EA4335" d="M10 4.58c1.321 0 2.508.454 3.44 1.346l2.581-2.581C14.463 1.892 12.426 1 10 1a8.998 8.998 0 00-8.043 4.958L4.964 8.29C5.672 6.163 7.656 4.58 10 4.58z"/><path fill="none" d="M1 1h18v18H1V1z"/></svg>